<svg xmlns="http://www.w3.org/2000/svg" viewBox="0 0 118.78 121.88"><defs><style>.cls-1{fill:none;stroke:#00238b;stroke-linecap:round;stroke-linejoin:round;stroke-width:5px;}</style></defs><g id="Layer_2" data-name="Layer 2"><g id="Ebene_1" data-name="Ebene 1"><path class="cls-1" d="M64.34,119.38H2.5S3.59,85.72,24.28,80.69l-3.82-7H46.38l-3.81,7C63.25,85.72,64.34,119.38,64.34,119.38Z"/><rect class="cls-1" x="29.15" y="27" width="9.74" height="23.15"/><rect class="cls-1" x="29.15" y="57.2" width="9.74" height="16.46"/><path class="cls-1" d="M61.16,50.15a14.63,14.63,0,0,1-.78,5c-.48,1.29-1.14,2.08-1.87,2.08h-49c-1.46,0-2.65-3.18-2.65-7.05Z"/><path class="cls-1" d="M45.66,7.61V21.9a5.12,5.12,0,0,1-5.1,5.1H26.28a5.12,5.12,0,0,1-5.1-5.1V7.61a5.12,5.12,0,0,1,5.1-5.11H40.56A5.12,5.12,0,0,1,45.66,7.61Z"/><path class="cls-1" d="M105.49,97.1a5.79,5.79,0,0,1-4.92-8.83c3.38-5.46,7.73-17.35-1-35.62a5.78,5.78,0,1,1,10.43-5c11.12,23.24,5,39.23.42,46.7A5.78,5.78,0,0,1,105.49,97.1Z"/><path class="cls-1" d="M32.26,40.87S68,23.32,77,40.87,61.5,92.71,77,102.1c6.84,4.14,16.61,2,23.83-5"/><path class="cls-1" d="M100.85,45.9c-.7-2.17-11.76-16.32-8.27-17.68s12.74,16.15,12.74,16.15"/></g></g></svg>