<svg xmlns="http://www.w3.org/2000/svg" viewBox="0 0 119.99 122.1"><defs><style>.cls-1{fill:none;stroke:#00238b;stroke-miterlimit:10;stroke-width:5px;}</style></defs><g id="Layer_2" data-name="Layer 2"><g id="Ebene_1" data-name="Ebene 1"><path class="cls-1" d="M87.4,24.19H3.76a1.26,1.26,0,0,0-.88,2.16L34.28,57l5,10.79a6.64,6.64,0,0,0,6,3.85h6.89a6.65,6.65,0,0,0,6.07-3.94l3.67-8.26L89.39,28.64A2.67,2.67,0,0,0,87.4,24.19Z"/><path class="cls-1" d="M74.12,24.19A21.68,21.68,0,1,1,80.06,39.1"/><line class="cls-1" x1="19.91" y1="42.62" x2="76.56" y2="42.62"/><path class="cls-1" d="M48.24,73v28.73L29.36,117.78A1,1,0,0,0,30,119.6H65.47a1,1,0,0,0,.69-1.8L48.24,101.71"/></g></g></svg>