<svg xmlns="http://www.w3.org/2000/svg" viewBox="0 0 120.14 118.85"><defs><style>.cls-1{fill:none;stroke:#00238b;stroke-linecap:round;stroke-linejoin:round;stroke-width:5px;}</style></defs><g id="Layer_2" data-name="Layer 2"><g id="Ebene_1" data-name="Ebene 1"><path class="cls-1" d="M60,2.5C44.31,30.53,46,57.24,60,83,47.69,57.3,27.94,42.74,2.5,36.65c7.78,23.24,24.55,39.51,51.77,47.71-21-4.75-38.59-3.63-51.77,4.88,18.58,10.25,36.32,10.88,52.86-2.17,0,0-23.58,10.3-17.89,24.94,12.73-1.1,21.16-8.61,23.85-24.67"/><path class="cls-1" d="M60,2.5C44.31,30.53,46,57.24,60,83,47.69,57.3,27.94,42.74,2.5,36.65c7.78,23.24,24.55,39.51,51.77,47.71-21-4.75-38.59-3.63-51.77,4.88,18.58,10.25,36.32,10.88,52.86-2.17,0,0-23.58,10.3-17.89,24.94,12.73-1.1,21.16-8.61,23.85-24.67"/><path class="cls-1" d="M60,116.35l-1.16-29c2.7,16.06,11.13,23.57,23.86,24.67,5.69-14.64-17.89-24.94-17.89-24.94,16.54,13.05,34.27,12.42,52.86,2.17-13.19-8.51-30.74-9.63-51.78-4.88,27.22-8.2,44-24.47,51.78-47.71C92.2,42.74,72.45,57.3,60.17,83c14-25.77,15.65-52.48,0-80.51"/></g></g></svg>