<svg xmlns="http://www.w3.org/2000/svg" viewBox="0 0 116.68 76.89"><defs><style>.cls-1{fill:none;stroke:#00238b;stroke-miterlimit:10;stroke-width:5px;}.cls-2{fill:#00238b;}</style></defs><g id="Layer_2" data-name="Layer 2"><g id="Ebene_1" data-name="Ebene 1"><path class="cls-1" d="M37.17,25.14c0-2.66-.05-4.15-1.21-6.55s-3.77-4.32-6.39-3.79A6.18,6.18,0,0,0,25.33,19a18.09,18.09,0,0,0-.7,6.14"/><path class="cls-1" d="M37.19,33.94c0,2.66-.07,4.28-1.23,6.68s-3.77,4.32-6.39,3.79a6.18,6.18,0,0,1-4.24-4.15,18.09,18.09,0,0,1-.7-6.14"/><path class="cls-1" d="M25.05,23.14c-2.66,0-5.42.07-7.82,1.23s-4.32,3.77-3.79,6.38A6.17,6.17,0,0,0,17.59,35a18.34,18.34,0,0,0,6.14.7"/><path class="cls-1" d="M36.25,23.14c2.66,0,5.43.07,7.82,1.23s4.32,3.77,3.79,6.38A6.17,6.17,0,0,1,43.71,35a18.34,18.34,0,0,1-6.14.7"/><circle class="cls-2" cx="84.56" cy="20.89" r="4.47"/><circle class="cls-2" cx="84.56" cy="42.92" r="4.47"/><circle class="cls-2" cx="95.57" cy="31.9" r="4.47"/><circle class="cls-2" cx="73.54" cy="31.9" r="4.47"/><path class="cls-1" d="M113.73,56.67q-1.8-13.48-4.44-26.82C107.75,22.13,105.73,14,100,8.59,94.43,3.44,86.3,1.87,78.79,2.71,72.74,3.39,67,5.45,61.29,7.76a7.82,7.82,0,0,1-5.9,0c-5.66-2.31-11.44-4.37-17.5-5-7.51-.84-15.64.73-21.18,5.88C11,14,8.93,22.13,7.39,29.85Q4.75,43.19,3,56.67c-.6,4.49-1,9.46,1.57,13.19S12.43,75,17,74.12s8.52-3.71,12-6.8,6.67-6.53,10.48-9.2c4.82-3.38,12.83-5.44,18.8-5.83,6,.33,14,2.38,18.9,5.83,3.81,2.67,7,6.12,10.48,9.2s7.45,5.88,12,6.8,9.83-.44,12.48-4.26S114.33,61.16,113.73,56.67Z"/></g></g></svg>