<svg xmlns="http://www.w3.org/2000/svg" viewBox="0 0 49.19 132.67"><defs><style>.cls-1{fill:none;stroke:#00238b;stroke-linecap:round;stroke-linejoin:round;stroke-width:5px;}</style></defs><g id="Layer_2" data-name="Layer 2"><g id="Ebene_1" data-name="Ebene 1"><rect class="cls-1" x="2.5" y="53.29" width="44.19" height="76.89" rx="0.56"/><line class="cls-1" x1="2.93" y1="64.65" x2="46.48" y2="64.65"/><path class="cls-1" d="M5.77,13H22.94a.54.54,0,0,1,.54.54V53.29a0,0,0,0,1,0,0H5.23a0,0,0,0,1,0,0V13.53A.54.54,0,0,1,5.77,13Z"/><path class="cls-1" d="M10.9,2.5h6.49a.35.35,0,0,1,.35.35V13a0,0,0,0,1,0,0H10.55a0,0,0,0,1,0,0V2.85A.35.35,0,0,1,10.9,2.5Z"/><line class="cls-1" x1="5.95" y1="21.61" x2="22.91" y2="21.61"/><line class="cls-1" x1="5.95" y1="42.59" x2="23.34" y2="42.59"/><line class="cls-1" x1="14.64" y1="22.62" x2="14.64" y2="42.31"/></g></g></svg>