<svg xmlns="http://www.w3.org/2000/svg" viewBox="0 0 112.98 143.79"><defs><style>.cls-1{fill:none;stroke:#00238b;stroke-linecap:round;stroke-miterlimit:10;stroke-width:5px;}.cls-2{fill:#00238b;}</style></defs><g id="Layer_2" data-name="Layer 2"><g id="Ebene_1" data-name="Ebene 1"><rect class="cls-1" x="2.5" y="2.5" width="73.85" height="117.92" rx="6.75"/><path class="cls-1" d="M92.23,20.54l-.64,4.22-15,99a6.76,6.76,0,0,1-7.68,5.67l-59.67-9H69.6a6.77,6.77,0,0,0,6.75-6.75V11.31l10.22,1.55A6.76,6.76,0,0,1,92.23,20.54Z"/><path class="cls-1" d="M110.08,38.6,74.66,136.84A6.78,6.78,0,0,1,66,140.9L9.25,120.42l59.67,9a6.76,6.76,0,0,0,7.68-5.67l15-99L106,30A6.76,6.76,0,0,1,110.08,38.6Z"/><polygon class="cls-2" points="39.42 41.03 26.59 61.46 39.42 81.89 52.26 61.46 39.42 41.03"/><polygon class="cls-2" points="14.77 8.01 9.09 17.06 14.77 26.1 20.45 17.06 14.77 8.01"/><polygon class="cls-2" points="64.65 95.66 58.97 104.7 64.65 113.75 70.33 104.7 64.65 95.66"/></g></g></svg>