<svg xmlns="http://www.w3.org/2000/svg" viewBox="0 0 120.44 97.09"><defs><style>.cls-1{fill:none;stroke:#00238b;stroke-linecap:round;stroke-linejoin:round;stroke-width:5px;}</style></defs><g id="Layer_2" data-name="Layer 2"><g id="Ebene_1" data-name="Ebene 1"><path class="cls-1" d="M46.08,74.67h20a5.59,5.59,0,0,0,5.59-5.59V37.16a5.59,5.59,0,0,0-5.59-5.59h-58A5.59,5.59,0,0,0,2.5,37.16V69.08a5.59,5.59,0,0,0,5.59,5.59H22.3V94.59Z"/><path class="cls-1" d="M48.74,30.76V8.09A5.59,5.59,0,0,1,54.33,2.5h58a5.59,5.59,0,0,1,5.59,5.59V40a5.59,5.59,0,0,1-5.59,5.59H98.14V65.52L74.35,45.6H71.7"/></g></g></svg>